<svg xmlns="http://www.w3.org/2000/svg" width="39.927" height="45.067" viewBox="0 0 39.927 45.067">
  <g id="Group_75" data-name="Group 75" transform="translate(-681 -1457.568)">
    <path id="Path_351" data-name="Path 351" d="M13.661,59.128a12.008,12.008,0,0,1-3.8-8.873,12.441,12.441,0,0,1,3.662-8.873,4.979,4.979,0,1,0-7.042-7.042A22.946,22.946,0,0,0,0,50.256,22.465,22.465,0,0,0,6.619,66.17a4.931,4.931,0,0,0,7.042,0A5.2,5.2,0,0,0,13.661,59.128Z" transform="translate(681 1429.846)" fill="#474747"/>
    <path id="Path_352" data-name="Path 352" d="M41.383,13.661a12.008,12.008,0,0,1,8.873-3.8,12.441,12.441,0,0,1,8.873,3.662A4.979,4.979,0,1,0,66.17,6.478,22.947,22.947,0,0,0,50.256,0,22.465,22.465,0,0,0,34.341,6.619a4.931,4.931,0,0,0,0,7.042A5.2,5.2,0,0,0,41.383,13.661Z" transform="translate(653.277 1457.568)" fill="#2b2b2b"/>
    <path id="Path_353" data-name="Path 353" d="M59.128,193.371a12.008,12.008,0,0,1-8.873,3.8,12.441,12.441,0,0,1-8.873-3.662,4.979,4.979,0,1,0-7.042,7.042,22.946,22.946,0,0,0,15.914,6.478,22.465,22.465,0,0,0,15.914-6.619,4.931,4.931,0,0,0,0-7.042A5.2,5.2,0,0,0,59.128,193.371Z" transform="translate(653.277 1295.603)" fill="#6e6e6e"/>
    <circle id="Ellipse_8" data-name="Ellipse 8" cx="4.929" cy="4.929" r="4.929" transform="translate(686.21 1462.779)" fill="#212121"/>
    <circle id="Ellipse_9" data-name="Ellipse 9" cx="4.929" cy="4.929" r="4.929" transform="translate(686.21 1487.566)" fill="#212121"/>
  </g>
</svg>
