<svg xmlns="http://www.w3.org/2000/svg" width="35"  viewBox="0 0 38.841 53.321">
  <g id="firebase-seeklogo.com" transform="translate(0 0)">
    <path id="Path_357" data-name="Path 357" d="M0,43.039l.323-.452,15.27-28.974.032-.307L8.894.663a1.249,1.249,0,0,0-2.337.394Z" transform="translate(0 0)" fill="#ffc24a"/>
    <g id="Group_81" data-name="Group 81" transform="translate(0.191 0.198)">
      <path id="Path_358" data-name="Path 358" d="M1.253,43.8l.244-.476,15.11-28.67L9.892,1.956a1.134,1.134,0,0,0-2.158.392Z" transform="translate(-1.253 -1.301)" fill="#2b2b2b"/>
      <path id="Path_359" data-name="Path 359" d="M1.253,43.8l.244-.476,15.11-28.67L9.892,1.956a1.134,1.134,0,0,0-2.158.392Z" transform="translate(-1.253 -1.301)" fill="#2b2b2b"/>
    </g>
    <path id="Path_360" data-name="Path 360" d="M107.376,64.609l5.012-5.133-5.013-9.57a1.291,1.291,0,0,0-2.275,0l-2.678,5.108v.435Z" transform="translate(-86.845 -41.739)" fill="#f4bd62"/>
    <g id="Group_82" data-name="Group 82" transform="translate(15.625 7.68)" opacity="0.56">
      <path id="Path_361" data-name="Path 361" d="M107.557,65.475l4.873-4.99-4.873-9.278a1.122,1.122,0,0,0-2.044-.09L102.82,56.3l-.081.265Z" transform="translate(-102.739 -50.499)" fill="#2b2b2b"/>
      <path id="Path_362" data-name="Path 362" d="M107.557,65.475l4.873-4.99-4.873-9.278a1.122,1.122,0,0,0-2.044-.09L102.82,56.3l-.081.265Z" transform="translate(-102.739 -50.499)" fill="#2b2b2b"/>
    </g>
    <path id="Path_363" data-name="Path 363" d="M0,116.9l.146-.147.532-.216L20.217,97.067l.248-.674L15.59,87.1Z" transform="translate(0 -73.858)" fill="#ffc719"/>
    <path id="Path_365" data-name="Path 365" d="M39.776,104.388,34.764,73.525a1.062,1.062,0,0,0-1.841-.673l-31.634,31.6,17.389,9.719a3.641,3.641,0,0,0,3.549,0Z" transform="translate(-1.093 -61.477)" fill="#2b2b2b"/>
    <path id="Path_366" data-name="Path 366" d="M21.158,290.79a3.669,3.669,0,0,1-3.576,0L.142,281.114l-.142.15,17.582,9.816a3.669,3.669,0,0,0,3.576,0l17.683-9.862-.043-.266Z" transform="translate(0 -238.225)" fill="#eeab37"/>
  </g>
</svg>
