<svg xmlns="http://www.w3.org/2000/svg" width="40.049" height="45" viewBox="0 0 40.049 45">
  <g id="Group_74" data-name="Group 74" transform="translate(-681 -1382.514)">
    <rect id="Rectangle_185" data-name="Rectangle 185" width="1.914" height="36.936" transform="matrix(-0.866, -0.5, 0.5, -0.866, 684.659, 1416.932)" fill="#2b2b2b"/>
    <rect id="Rectangle_186" data-name="Rectangle 186" width="36.795" height="1.914" transform="translate(682.621 1413.306)" fill="#2b2b2b"/>
    <rect id="Rectangle_187" data-name="Rectangle 187" width="21.334" height="1.914" transform="matrix(-0.866, -0.5, 0.5, -0.866, 701.827, 1425.003)" fill="#2b2b2b"/>
    <rect id="Rectangle_188" data-name="Rectangle 188" width="21.334" height="1.914" transform="matrix(-0.866, -0.5, 0.5, -0.866, 717.736, 1397.36)" fill="#2b2b2b"/>
    <rect id="Rectangle_189" data-name="Rectangle 189" width="1.914" height="21.334" transform="matrix(-0.5, -0.866, 0.866, -0.5, 684.315, 1397.353)" fill="#2b2b2b"/>
    <rect id="Rectangle_190" data-name="Rectangle 190" width="36.936" height="1.914" transform="matrix(-0.5, -0.866, 0.866, -0.5, 717.395, 1416.932)" fill="#2b2b2b"/>
    <rect id="Rectangle_191" data-name="Rectangle 191" width="1.914" height="21.334" transform="translate(684.086 1394.347)" fill="#2b2b2b"/>
    <rect id="Rectangle_192" data-name="Rectangle 192" width="1.914" height="21.334" transform="translate(716.049 1394.347)" fill="#2b2b2b"/>
    <rect id="Rectangle_193" data-name="Rectangle 193" width="1.672" height="18.555" transform="matrix(-0.5, -0.866, 0.866, -0.5, 701.36, 1424.193)" fill="#2b2b2b"/>
    <path id="Path_345" data-name="Path 345" d="M311.854,251.578a4.027,4.027,0,1,1-1.476-5.5,4.031,4.031,0,0,1,1.476,5.5" transform="translate(408.647 1164.686)" fill="#2b2b2b"/>
    <path id="Path_346" data-name="Path 346" d="M33.254,90.678a4.027,4.027,0,1,1-1.476-5.5,4.031,4.031,0,0,1,1.476,5.5" transform="translate(655.26 1307.11)" fill="#2b2b2b"/>
    <path id="Path_347" data-name="Path 347" d="M26.377,251.578a4.027,4.027,0,1,1,5.5,1.476,4.033,4.033,0,0,1-5.5-1.476" transform="translate(655.172 1164.686)" fill="#2b2b2b"/>
    <path id="Path_348" data-name="Path 348" d="M304.977,90.678a4.027,4.027,0,1,1,5.5,1.476,4.033,4.033,0,0,1-5.5-1.476" transform="translate(408.558 1307.11)" fill="#2b2b2b"/>
    <path id="Path_349" data-name="Path 349" d="M169.125,334.049a4.025,4.025,0,1,1,4.025-4.025,4.021,4.021,0,0,1-4.025,4.025" transform="translate(531.9 1093.465)" fill="#2b2b2b"/>
    <path id="Path_350" data-name="Path 350" d="M169.125,12.249a4.025,4.025,0,1,1,4.025-4.025,4.021,4.021,0,0,1-4.025,4.025" transform="translate(531.9 1378.314)" fill="#2b2b2b"/>
  </g>
</svg>
