<svg xmlns="http://www.w3.org/2000/svg" width="57.577" height="56.162" viewBox="0 0 57.577 56.162">
  <g id="Group_77" data-name="Group 77" transform="translate(199.5 -9675.5)">
    <path id="Icon_simple-adobeillustrator" data-name="Icon simple-adobeillustrator" d="M19.625,31.685l-1.867,7.067c-.04.2-.118.24-.349.24H13.949c-.236,0-.271-.078-.236-.349L20.408,15.2a7.272,7.272,0,0,0,.231-1.964c0-.156.078-.236.2-.236h4.941c.156,0,.236.042.273.236l7.508,25.445c.04.2,0,.311-.2.311h-3.89c-.2,0-.311-.047-.349-.2l-1.945-7.107h-7.56ZM26.2,27.854c-.66-2.607-2.216-8.317-2.8-11.08h-.04c-.5,2.758-1.749,7.426-2.723,11.08Zm10.608-13.1a2.412,2.412,0,0,1,4.823,0,2.258,2.258,0,0,1-2.452,2.412A2.216,2.216,0,0,1,36.8,14.752Zm.264,5.361c0-.189.078-.259.273-.259h3.7c.207,0,.283.078.283.273V38.738c0,.2-.038.273-.271.273H37.4c-.236,0-.314-.118-.314-.306V20.11Z" transform="translate(-198 9677.55)" fill="#2b2b2b" stroke="#2b2b2b" stroke-width="1"/>
    <path id="Icon_simple-adobeillustrator-2" data-name="Icon simple-adobeillustrator" d="M0,.45V55.612H56.577V.45ZM2.357,2.807H54.22V53.255H2.357Z" transform="translate(-199 9675.55)" fill="#2b2b2b" stroke="#2b2b2b" stroke-width="1"/>
  </g>
</svg>
