<svg xmlns="http://www.w3.org/2000/svg" width="45" height="45" viewBox="0 0 45 45">
  <path id="Icon_simple-javascript" data-name="Icon simple-javascript" d="M0,0H45V45H0ZM41.314,34.267c-.328-2.053-1.665-3.778-5.631-5.387-1.38-.647-2.914-1.1-3.369-2.137a2.214,2.214,0,0,1-.086-1.322c.281-1.211,1.716-1.575,2.841-1.238a3.05,3.05,0,0,1,1.83,1.688c1.939-1.268,1.939-1.268,3.291-2.109a7.739,7.739,0,0,0-1.1-1.462c-1.181-1.322-2.754-2-5.314-1.939l-1.322.167a6.044,6.044,0,0,0-3.206,1.884,5.883,5.883,0,0,0,1.067,8.383c2.559,1.912,6.3,2.332,6.78,4.134.45,2.194-1.631,2.9-3.686,2.644a4.937,4.937,0,0,1-3.291-2.505l-3.431,1.971a7.582,7.582,0,0,0,1.519,2.079c3.263,3.293,11.419,3.124,12.883-1.882a6.346,6.346,0,0,0,.139-3.094l.086.126ZM24.471,20.683H20.256c0,3.634-.017,7.245-.017,10.884,0,2.31.118,4.431-.259,5.083-.619,1.292-2.212,1.127-2.936.9a3.618,3.618,0,0,1-1.556-1.6,1.609,1.609,0,0,0-.238-.368l-3.422,2.109a6.632,6.632,0,0,0,2.482,2.844,8.252,8.252,0,0,0,6.013.759,5.266,5.266,0,0,0,3.4-2.646c.956-1.744.754-3.881.744-6.274.023-3.851,0-7.7,0-11.586l.008-.1Z" fill="#2b2b2b"/>
</svg>
