<svg xmlns="http://www.w3.org/2000/svg" width="21.1038mm" height="21.1038mm" viewBox="0 0 59.8219 59.8219">
  <g id="Layer_2" data-name="Layer 2">
    <g id="Layer_1-2" data-name="Layer 1">
      <g>
        <path d="M0,0V59.8219H59.8219V0ZM57.9119,57.9119H1.91V1.91h56.002Z" fill="#292623"/>
        <path d="M29.4431,16.07c6.7193,0,10.0177,3.8686,10.0177,8.47a8.0552,8.0552,0,0,1-6.5562,8.1037L39.909,44.3713H34.37L27.8549,33.0506H24.3125V44.3713H19.67V16.07Zm0,3.7873H24.3125v9.4881h5.1306c3.6242,0,5.2535-1.9953,5.2535-4.8053C34.6966,21.6894,33.0673,19.857,29.4431,19.857Z" fill="#333"/>
        <path d="M31.6053,13.9075c6.7192,0,10.0176,3.8687,10.0176,8.47a8.055,8.055,0,0,1-6.5561,8.1037l7.0039,11.7278H36.533L30.0176,30.8884H26.4747V42.2091H21.8321V13.9075Zm0,3.7873H26.4747v9.4881h5.1306c3.6246,0,5.253-1.9953,5.253-4.8053C36.8583,19.5272,35.23,17.6948,31.6053,17.6948Z" fill="#fec900"/>
      </g>
    </g>
  </g>
</svg>
