<svg xmlns="http://www.w3.org/2000/svg" width="44.999" height="45" viewBox="0 0 44.999 45">
  <path id="netlify" d="M26.911,29.123,15.874,26.816a2.572,2.572,0,0,1-.154.259L25.767,41.732l.606-.605L28.083,30.5a2.014,2.014,0,0,1-1.172-1.375ZM22.884,14.7a2.288,2.288,0,0,1-2.306,1.022l-5.033,7.875,13.447-5.787c0-.054-.016-.1-.016-.16a1.98,1.98,0,0,1,.034-.331L22.884,14.7Zm.366-1.435,6.515,2.786a2.012,2.012,0,0,1,.7-.353l1.071-6.658-4.08-4.08-4.592,7.185a2.287,2.287,0,0,1,.387,1.12ZM36.9,14.4l-4.089-4.089-.889,5.521a2.044,2.044,0,0,1,.6.454Zm-9.8,13.266a2,2,0,0,1,1.6-1.027l1.174-7.3a2.022,2.022,0,0,1-.255-.21L16.1,24.949a2.676,2.676,0,0,1,.07.435Zm10.91-12.152-4.731,2.036,11.672,4.99L45,22.5Zm-8.453,15L28.14,39.358,36.4,31.1l-5.946-1.242A2,2,0,0,1,29.562,30.519ZM13.516,28.247a2.648,2.648,0,0,1-.853-.142L9.921,32.4l-1.06-1.059,2.6-4.064a2.824,2.824,0,0,1-.179-.249L6.574,29.05,5.459,27.934l5.15-2.217L1.3,23.774.025,22.5l.4-.4,10.737,2.242a2.633,2.633,0,0,1,.469-.636L6.422,16.1l1.053-1.053,5.445,7.943a2.587,2.587,0,0,1,1.262.018l5.095-7.972a2.3,2.3,0,0,1-.583-2.133l-6.356-2.718,1.115-1.115,6.022,2.575a2.306,2.306,0,0,1,2.224-.4L26.4,3.9,22.5,0,0,22.5,22.5,45l2.214-2.214L14.592,28.019a2.657,2.657,0,0,1-1.076.228ZM31.31,19.653l-1.195,7.424a2,2,0,0,1,.738,1.373l6.78,1.415,6.208-6.208L32.635,18.866a2.023,2.023,0,0,1-1.325.787Z" fill="#2b2b2b"/>
</svg>
