<svg xmlns="http://www.w3.org/2000/svg" width="57.577" height="56.162" viewBox="0 0 57.577 56.162">
  <g id="Group_79" data-name="Group 79" transform="translate(0.5 -9675.5)">
    <path id="Icon_simple-adobephotoshop" data-name="Icon simple-adobephotoshop" d="M13.673,13.368c0-.158.33-.273.528-.273,1.518-.078,3.744-.118,6.077-.118,6.535,0,9.076,3.583,9.076,8.171,0,5.988-4.342,8.557-9.67,8.557-.9,0-1.2-.04-1.827-.04v9.057c0,.2-.078.273-.271.273h-3.64c-.2,0-.271-.071-.271-.266V13.368Zm4.184,12.522c.542.038.971.038,1.909.038,2.758,0,5.351-.971,5.351-4.705,0-2.994-1.853-4.512-5-4.512-.934,0-1.827.038-2.256.078V25.9Zm20.29-2.8c-1.867,0-2.489.934-2.489,1.711,0,.856.424,1.438,2.916,2.723,3.7,1.792,4.861,3.5,4.861,6.028,0,3.772-2.876,5.8-6.766,5.8a10.3,10.3,0,0,1-4.833-1.014c-.153-.078-.189-.193-.189-.389V34.49c0-.236.113-.314.269-.2a8.684,8.684,0,0,0,4.743,1.4c1.867,0,2.645-.778,2.645-1.829,0-.856-.542-1.6-2.916-2.841-3.347-1.6-4.748-3.23-4.748-5.957,0-3.034,2.372-5.563,6.495-5.563a10.988,10.988,0,0,1,4.229.66.514.514,0,0,1,.236.467v3.23c0,.2-.118.314-.354.236a8.442,8.442,0,0,0-4.109-1.014Z" transform="translate(0 9677.55)" fill="#2b2b2b"/>
    <path id="Icon_simple-adobeillustrator" data-name="Icon simple-adobeillustrator" d="M0,.45V55.612H56.577V.45ZM2.357,2.807H54.22V53.255H2.357Z" transform="translate(0 9675.55)" fill="#2b2b2b" stroke="#2b2b2b" stroke-width="1"/>
  </g>
</svg>
