<svg xmlns="http://www.w3.org/2000/svg" width="35"  viewBox="0 0 93.688 120.805">
  <g id="Group_80" data-name="Group 80" transform="translate(-24 -0.371)">
    <path id="Path_354" data-name="Path 354" d="M31.188,1.808C31.188,18.1,41.43,27.794,61.926,32.9l21.729,4.944c19.391,4.386,31.209,15.251,31.209,32.968a33.254,33.254,0,0,1-7.239,21.342c0-17.675-9.3-27.23-31.746-32.968L54.547,54.424C37.473,50.6,24.292,41.651,24.292,22.41a33.176,33.176,0,0,1,6.9-20.6" transform="translate(2.818 13.975)"/>
    <path id="Path_355" data-name="Path 355" d="M97.1,7.877c9.266,5.824,13.32,13.964,13.32,25.654C102.753,43.183,89.282,48.6,73.452,48.6,46.8,48.6,28.14,35.708,24,13.3H49.6c3.293,10.285,12.012,15.047,23.67,15.047,14.21,0,23.659-7.443,23.852-20.517" transform="translate(0 72.577)" opacity="0.7" style="isolation: isolate"/>
    <path id="Path_356" data-name="Path 356" d="M38.264,39.935A27.179,27.179,0,0,1,28.215,29.661a26.475,26.475,0,0,1-3.26-13.878C32.354,6.216,45.224.371,60.915.371c27.155,0,42.867,14.092,46.739,33.923H83.029c-2.713-7.818-9.513-13.91-21.9-13.91-13.245,0-22.286,7.572-22.8,19.551" transform="translate(9.052 0)" opacity="0.7" style="isolation: isolate"/>
  </g>
</svg>
