<svg xmlns="http://www.w3.org/2000/svg" width="20" height="20.004" viewBox="0 0 20 20.004">
  <path id="Icon_awesome-globe" data-name="Icon awesome-globe" d="M13.571,6.693C12.986,3.091,11.607.563,10,.563S7.018,3.091,6.433,6.693ZM6.13,10.565a25.279,25.279,0,0,0,.133,2.581h7.473a25.28,25.28,0,0,0,.133-2.581,25.28,25.28,0,0,0-.133-2.581H6.263A25.279,25.279,0,0,0,6.13,10.565Zm13.1-3.872A10.023,10.023,0,0,0,12.853.982,13.612,13.612,0,0,1,14.87,6.693ZM7.147.982A10.016,10.016,0,0,0,.778,6.693H5.134A13.557,13.557,0,0,1,7.147.982Zm12.511,7H15.031c.085.847.133,1.714.133,2.581s-.048,1.734-.133,2.581h4.622A9.916,9.916,0,0,0,20,10.565,10.089,10.089,0,0,0,19.657,7.983ZM4.84,10.565c0-.867.048-1.734.133-2.581H.347a9.778,9.778,0,0,0,0,5.162H4.969C4.888,12.3,4.84,11.432,4.84,10.565Zm1.593,3.872c.585,3.6,1.964,6.13,3.569,6.13s2.984-2.529,3.569-6.13Zm6.425,5.711a10.033,10.033,0,0,0,6.372-5.711H14.874a13.612,13.612,0,0,1-2.017,5.711ZM.778,14.436a10.023,10.023,0,0,0,6.372,5.711,13.612,13.612,0,0,1-2.017-5.711H.778Z" transform="translate(0 -0.563)" fill="#2b2b2b"/>
</svg>
