<svg xmlns="http://www.w3.org/2000/svg" width="57.577" height="56.162" viewBox="0 0 57.577 56.162">
  <g id="Group_78" data-name="Group 78" transform="translate(99.5 -9671.5)">
    <path id="Icon_simple-adobexd" data-name="Icon simple-adobexd" d="M18.53,21.385l6.6,12.683c.118.189.047.377-.141.377h-4.1a.463.463,0,0,1-.5-.306c-1.509-3.112-3.041-6.223-4.62-9.571h-.047c-1.414,3.159-2.97,6.483-4.479,9.594a.453.453,0,0,1-.424.259H6.932c-.236,0-.259-.189-.141-.33l6.459-12.305L7,9.339a.191.191,0,0,1,.141-.33H11.2a.371.371,0,0,1,.424.259c1.485,3.112,2.994,6.318,4.408,9.453h.047c1.367-3.112,2.876-6.341,4.338-9.429.118-.189.189-.306.424-.306h3.8c.189,0,.259.141.141.33Zm7.756,3.842c0-5.493,3.654-9.783,9.453-9.783a10.454,10.454,0,0,1,1.226.047V9.244a.236.236,0,0,1,.236-.236h3.725c.189,0,.236.071.236.189V30.838a16.79,16.79,0,0,0,.118,2.31c0,.141-.047.189-.189.259a14.042,14.042,0,0,1-6.035,1.367C29.94,34.8,26.286,31.639,26.286,25.227Zm10.679-6.035a3.565,3.565,0,0,0-1.367-.236c-2.97,0-5.045,2.287-5.045,6.082,0,4.338,2.122,6.082,4.785,6.082a4.448,4.448,0,0,0,1.627-.259V19.192Z" transform="translate(-95.473 9676.429)" fill="#2b2b2b"/>
    <path id="Icon_simple-adobeillustrator" data-name="Icon simple-adobeillustrator" d="M0,.45V55.612H56.577V.45ZM2.357,2.807H54.22V53.255H2.357Z" transform="translate(-99 9671.55)" fill="#2b2b2b" stroke="#2b2b2b" stroke-width="1"/>
  </g>
</svg>
